<svg width="12" height="32" viewBox="0 0 12 32" fill="none" xmlns="http://www.w3.org/2000/svg">
<path d="M10 28.0002C11.0625 28.0002 12 28.8752 12 30.0002C12 31.0627 11.0625 32.0002 10 32.0002H2C0.875 32.0002 0 31.0627 0 30.0002C0 28.8752 0.875 28.0002 2 28.0002H4V16.0002H2C0.875 16.0002 0 15.1252 0 14.0002C0 12.9377 0.875 12.0002 2 12.0002H6C7.0625 12.0002 8 12.9377 8 14.0002V28.0002H10ZM6 8.00024C4.3125 8.00024 3 6.68774 3 5.06274C3 3.37524 4.3125 2.06274 6 2.06274C7.625 2.06274 9 3.37524 9 5.00024C9 6.68774 7.625 8.00024 6 8.00024Z" fill="#862020"/>
</svg>
